# xmcd
#
# Track frame offsets:
# 150
# 15975
# 35855
# 48820
# 66775
# 79700
# 89050
# 104145
# 115602
# 137140
# 164540
# 175242
# 205887
# 222462
# 244280
# 258935
#
# Disc length: 3637 seconds
#
#
# Revision: 1
# Processed by: cddbd v1.5.1PL0 Copyright (c) Steve Scherf et al.
# Submitted via: FreeRIP 2.92 
#
DISCID=e80e3310
DTITLE=FLAMIN' GROOVIES - Teenage Head [1971] - Teenage Head
DYEAR=1971
DGENRE=Oldies
TTITLE0=FLAMIN' GROOVIES Teenage Head [1971] - 01-High Flyin' Baby 3.31
TTITLE1=FLAMIN' GROOVIES Teenage Head [1971] - 02-City Lights 4.25
TTITLE2=FLAMIN' GROOVIES Teenage Head [1971] - 03-Have You Seen My Baby? 2.52
TTITLE3=FLAMIN' GROOVIES Teenage Head [1971] - 04-Yesterday's Numbers 3.59
TTITLE4=FLAMIN' GROOVIES Teenage Head [1971] - 05-Teenage Head 2.52
TTITLE5=FLAMIN' GROOVIES Teenage Head [1971] - 06-32-20 min.2.04
TTITLE6=FLAMIN' GROOVIES Teenage Head [1971] - 07-Evil-Hearted Ada 3.21
TTITLE7=FLAMIN' GROOVIES Teenage Head [1971] - 08-Doctor Boogie 2.32
TTITLE8=FLAMIN' GROOVIES Teenage Head [1971] - 09-Whiskey Woman 4.47
TTITLE9=FLAMIN' GROOVIES Teenage Head [1971] - 10-Shakin' All Over 6.05
TTITLE10=FLAMIN' GROOVIES Teenage Head [1971] - 11-That'll Be The Day 2.22
TTITLE11=FLAMIN' GROOVIES Teenage Head [1971] - 12-Louie Louie 6.48
TTITLE12=FLAMIN' GROOVIES Teenage Head [1971] - 13-Walking The Dog 3.41
TTITLE13=FLAMIN' GROOVIES Teenage Head [1971] - 14-Scratch My Back 4.50
TTITLE14=FLAMIN' GROOVIES Teenage Head [1971] - 15-Carol 3.15
TTITLE15=FLAMIN' GROOVIES Teenage Head [1971] - 16-Going Out Theme 3.04
EXTD=
EXTT0=
EXTT1=
EXTT2=
EXTT3=
EXTT4=
EXTT5=
EXTT6=
EXTT7=
EXTT8=
EXTT9=
EXTT10=
EXTT11=
EXTT12=
EXTT13=
EXTT14=
EXTT15=
PLAYORDER=
